<?xml version="1.0" encoding="UTF-8" standalone="no"?><!DOCTYPE svg PUBLIC "-//W3C//DTD SVG 1.1//EN" "http://www.w3.org/Graphics/SVG/1.1/DTD/svg11.dtd"><svg width="100%" height="100%" viewBox="0 0 64 64" version="1.1" xmlns="http://www.w3.org/2000/svg" xmlns:xlink="http://www.w3.org/1999/xlink" xml:space="preserve" xmlns:serif="http://www.serif.com/" style="fill-rule:evenodd;clip-rule:evenodd;stroke-linejoin:round;stroke-miterlimit:1.41421;"><rect id="Artboard1" x="0" y="0" width="64" height="64" style="fill:none;"/><g id="Artboard11" serif:id="Artboard1"><path d="M13.2,37.23c-0.644,0 -1.225,-0.159 -1.743,-0.476c-0.518,-0.317 -0.926,-0.777 -1.225,-1.379c-0.299,-0.602 -0.448,-1.314 -0.448,-2.135c0,-1.419 0.303,-2.732 0.91,-3.941c0.607,-1.209 1.503,-2.179 2.688,-2.912c1.185,-0.733 2.609,-1.099 4.27,-1.099c0.429,0 0.889,0.033 1.379,0.098c0.49,0.065 0.936,0.163 1.337,0.294c0.261,0.075 0.392,0.261 0.392,0.56c0,0.243 -0.091,0.471 -0.273,0.686c-0.182,0.215 -0.394,0.322 -0.637,0.322c-0.075,0 -0.131,-0.005 -0.168,-0.014c-0.485,-0.112 -0.901,-0.194 -1.246,-0.245c-0.345,-0.051 -0.709,-0.077 -1.092,-0.077c-1.185,0 -2.193,0.287 -3.024,0.861c-0.831,0.574 -1.451,1.332 -1.862,2.275c-0.411,0.943 -0.616,1.96 -0.616,3.052c0,0.793 0.156,1.407 0.469,1.841c0.313,0.434 0.721,0.651 1.225,0.651c0.569,0 1.069,-0.233 1.498,-0.7c0.429,-0.467 0.821,-1.223 1.176,-2.268c0.355,-1.045 0.705,-2.464 1.05,-4.256c0.056,-0.261 0.168,-0.439 0.336,-0.532c0.168,-0.093 0.392,-0.14 0.672,-0.14c0.663,0 0.994,0.215 0.994,0.644c0,0.075 -0.014,0.168 -0.042,0.28c-0.243,0.905 -0.464,1.906 -0.665,3.003c-0.201,1.097 -0.301,1.93 -0.301,2.499c0,0.504 0.075,0.87 0.224,1.099c0.149,0.229 0.378,0.343 0.686,0.343c0.299,0 0.583,-0.1 0.854,-0.301c0.271,-0.201 0.611,-0.544 1.022,-1.029c0.112,-0.131 0.238,-0.196 0.378,-0.196c0.121,0 0.217,0.056 0.287,0.168c0.07,0.112 0.105,0.266 0.105,0.462c0,0.364 -0.089,0.653 -0.266,0.868c-0.457,0.551 -0.905,0.971 -1.344,1.26c-0.439,0.289 -0.975,0.434 -1.61,0.434c-0.653,0 -1.181,-0.189 -1.582,-0.567c-0.401,-0.378 -0.653,-0.912 -0.756,-1.603c-0.691,1.447 -1.708,2.17 -3.052,2.17Z" style="fill:#fff;fill-rule:nonzero;stroke:#fff;stroke-width:1px;"/><path d="M24.162,37.23c-0.411,0 -0.721,-0.112 -0.931,-0.336c-0.21,-0.224 -0.315,-0.518 -0.315,-0.882c0,-0.42 0.119,-0.756 0.357,-1.008c0.238,-0.252 0.572,-0.378 1.001,-0.378c0.411,0 0.721,0.1 0.931,0.301c0.21,0.201 0.315,0.497 0.315,0.889c0,0.429 -0.121,0.772 -0.364,1.029c-0.243,0.257 -0.574,0.385 -0.994,0.385Z" style="fill:#fff;fill-rule:nonzero;stroke:#fff;stroke-width:1px;"/><path d="M33.08,37.23c-0.345,0 -0.593,-0.077 -0.742,-0.231c-0.149,-0.154 -0.224,-0.446 -0.224,-0.875c0,-0.289 0.03,-0.66 0.091,-1.113c0.061,-0.453 0.161,-1.076 0.301,-1.869c0.243,-1.465 0.434,-2.735 0.574,-3.808c0.084,-0.672 0.126,-1.232 0.126,-1.68c0,-0.42 -0.154,-0.63 -0.462,-0.63c-0.243,0 -0.534,0.124 -0.875,0.371c-0.341,0.247 -0.716,0.642 -1.127,1.183c-0.131,0.177 -0.275,0.266 -0.434,0.266c-0.131,0 -0.245,-0.063 -0.343,-0.189c-0.098,-0.126 -0.147,-0.268 -0.147,-0.427c0,-0.149 0.03,-0.301 0.091,-0.455c0.061,-0.154 0.161,-0.329 0.301,-0.525c0.448,-0.625 0.947,-1.108 1.498,-1.449c0.551,-0.341 1.101,-0.511 1.652,-0.511c0.513,0 0.908,0.163 1.183,0.49c0.275,0.327 0.413,0.803 0.413,1.428c0,0.252 -0.023,0.548 -0.07,0.889c-0.047,0.341 -0.089,0.618 -0.126,0.833c-0.037,0.215 -0.065,0.364 -0.084,0.448c0.532,-1.521 1.129,-2.583 1.792,-3.185c0.663,-0.602 1.391,-0.903 2.184,-0.903c0.607,0 1.085,0.215 1.435,0.644c0.35,0.429 0.525,1.036 0.525,1.82c0,0.308 -0.042,0.691 -0.126,1.148c0.467,-1.288 1.013,-2.212 1.638,-2.772c0.625,-0.56 1.344,-0.84 2.156,-0.84c0.653,0 1.155,0.21 1.505,0.63c0.35,0.42 0.525,1.008 0.525,1.764c0,0.411 -0.061,0.91 -0.182,1.498l-0.854,4.004c-0.093,0.467 -0.14,0.868 -0.14,1.204c0,0.392 0.091,0.686 0.273,0.882c0.182,0.196 0.436,0.294 0.763,0.294c0.308,0 0.609,-0.103 0.903,-0.308c0.294,-0.205 0.642,-0.546 1.043,-1.022c0.112,-0.131 0.238,-0.196 0.378,-0.196c0.121,0 0.217,0.056 0.287,0.168c0.07,0.112 0.105,0.266 0.105,0.462c0,0.364 -0.089,0.653 -0.266,0.868c-0.485,0.588 -0.966,1.017 -1.442,1.288c-0.476,0.271 -0.975,0.406 -1.498,0.406c-0.793,0 -1.414,-0.236 -1.862,-0.707c-0.448,-0.471 -0.672,-1.104 -0.672,-1.897c0,-0.551 0.112,-1.349 0.336,-2.394l0.56,-2.562c0.019,-0.084 0.051,-0.233 0.098,-0.448c0.047,-0.215 0.084,-0.418 0.112,-0.609c0.028,-0.191 0.042,-0.38 0.042,-0.567c0,-0.327 -0.063,-0.572 -0.189,-0.735c-0.126,-0.163 -0.306,-0.245 -0.539,-0.245c-0.439,0 -0.898,0.282 -1.379,0.847c-0.481,0.565 -0.938,1.5 -1.372,2.807c-0.434,1.307 -0.786,3.005 -1.057,5.096c-0.065,0.56 -0.18,0.936 -0.343,1.127c-0.163,0.191 -0.427,0.287 -0.791,0.287c-0.317,0 -0.548,-0.075 -0.693,-0.224c-0.145,-0.149 -0.217,-0.429 -0.217,-0.84c0,-0.383 0.051,-0.884 0.154,-1.505c0.103,-0.621 0.233,-1.351 0.392,-2.191c0.429,-2.259 0.644,-3.715 0.644,-4.368c0,-0.355 -0.068,-0.616 -0.203,-0.784c-0.135,-0.168 -0.338,-0.252 -0.609,-0.252c-0.457,0 -0.929,0.259 -1.414,0.777c-0.485,0.518 -0.959,1.437 -1.421,2.758c-0.462,1.321 -0.847,3.106 -1.155,5.355c-0.065,0.476 -0.161,0.807 -0.287,0.994c-0.126,0.187 -0.371,0.28 -0.735,0.28Z" style="fill:#fff;fill-rule:nonzero;stroke:#fff;stroke-width:1px;"/><path d="M51.238,37.23c-0.411,0 -0.721,-0.112 -0.931,-0.336c-0.21,-0.224 -0.315,-0.518 -0.315,-0.882c0,-0.42 0.119,-0.756 0.357,-1.008c0.238,-0.252 0.572,-0.378 1.001,-0.378c0.411,0 0.721,0.1 0.931,0.301c0.21,0.201 0.315,0.497 0.315,0.889c0,0.429 -0.121,0.772 -0.364,1.029c-0.243,0.257 -0.574,0.385 -0.994,0.385Z" style="fill:#fff;fill-rule:nonzero;stroke:#fff;stroke-width:1px;"/><ellipse cx="32" cy="31" rx="28" ry="27" style="fill:#ebebeb;fill-opacity:0;stroke:#fff;stroke-width:1px;stroke-linecap:round;stroke-miterlimit:1.5;"/></g></svg>